<?xml version="1.0" encoding="UTF-8" standalone="no"?>
<!-- Created with Inkscape (http://www.inkscape.org/) -->

<svg
   xmlns:dc="http://purl.org/dc/elements/1.1/"
   xmlns:cc="http://creativecommons.org/ns#"
   xmlns:rdf="http://www.w3.org/1999/02/22-rdf-syntax-ns#"
   xmlns:svg="http://www.w3.org/2000/svg"
   xmlns="http://www.w3.org/2000/svg"
   xmlns:sodipodi="http://sodipodi.sourceforge.net/DTD/sodipodi-0.dtd"
   xmlns:inkscape="http://www.inkscape.org/namespaces/inkscape"
   width="89.999962mm"
   height="80.850479mm"
   viewBox="0 0 89.999962 80.850479"
   version="1.1"
   id="svg4552"
   inkscape:version="0.92.1 r"
   sodipodi:docname="logo.svg">
  <defs
     id="defs4546" />
  <sodipodi:namedview
     id="base"
     pagecolor="#ffffff"
     bordercolor="#666666"
     borderopacity="1.0"
     inkscape:pageopacity="0.0"
     inkscape:pageshadow="2"
     inkscape:zoom="0.35"
     inkscape:cx="-1254.2071"
     inkscape:cy="298.50261"
     inkscape:document-units="mm"
     inkscape:current-layer="layer1"
     showgrid="false"
     fit-margin-top="0"
     fit-margin-left="0"
     fit-margin-right="0"
     fit-margin-bottom="0"
     inkscape:window-width="1920"
     inkscape:window-height="1003"
     inkscape:window-x="0"
     inkscape:window-y="0"
     inkscape:window-maximized="1" />
  <metadata
     id="metadata4549">
    <rdf:RDF>
      <cc:Work
         rdf:about="">
        <dc:format>image/svg+xml</dc:format>
        <dc:type
           rdf:resource="http://purl.org/dc/dcmitype/StillImage" />
        <dc:title></dc:title>
      </cc:Work>
    </rdf:RDF>
  </metadata>
  <g
     inkscape:label="Camada 1"
     inkscape:groupmode="layer"
     id="layer1"
     transform="translate(-274.76788,-146.96167)">
    <g
       transform="matrix(0.35277777,0,0,-0.35277777,167.8106,227.81215)"
       id="g4530">
      <path
         d="m 544.467,38.752 c -1.128,0 -1.964,1.0468 -2.508,3.1429 -0.543,2.0942 -0.795,5.0352 -0.754,8.8223 0,1.6508 0.06,3.1816 0.18,4.5918 0.121,1.4101 0.323,2.6289 0.605,3.6539 0.282,1.0281 0.624,1.8242 1.027,2.3891 0.402,0.5621 0.886,0.846 1.45,0.846 0.564,0 1.037,-0.2839 1.42,-0.846 0.383,-0.5649 0.695,-1.35 0.937,-2.3571 0.241,-1.0078 0.413,-2.2058 0.513,-3.5961 0.101,-1.3886 0.151,-2.8906 0.151,-4.5019 0,-3.8649 -0.241,-6.8578 -0.725,-8.9731 -0.483,-2.1148 -1.249,-3.1718 -2.296,-3.1718 z m -0.121,-9.1231 c 2.095,0 3.998,0.4121 5.71,1.2391 1.712,0.8261 3.183,2.1152 4.411,3.8672 1.229,1.7519 2.175,3.998 2.84,6.7359 0.665,2.7398 0.997,6.043 0.997,9.9098 0,1.9339 -0.172,4.0589 -0.513,6.375 -0.343,2.3171 -1.007,4.4902 -1.995,6.5261 -0.987,2.0328 -2.356,3.7262 -4.108,5.0739 -1.752,1.3492 -4.039,2.025 -6.858,2.025 -2.497,0 -4.653,-0.6129 -6.465,-1.8438 -1.814,-1.2281 -3.304,-2.818 -4.472,-4.773 -1.168,-1.9532 -2.024,-4.168 -2.567,-6.6461 -0.544,-2.477 -0.817,-4.9848 -0.817,-7.5219 0,-2.4981 0.232,-4.9961 0.696,-7.4922 0.462,-2.498 1.228,-4.7437 2.295,-6.7379 1.068,-1.9949 2.488,-3.616 4.26,-4.864 1.773,-1.25 3.968,-1.8731 6.586,-1.8731 z m -33.354,33.0512 c 0.12,0.041 0.281,0.0609 0.482,0.0609 0.202,0 0.384,0 0.544,0 1.169,-0.039 2.004,-0.4828 2.508,-1.3301 0.504,-0.8461 0.756,-1.9129 0.756,-3.2019 0,-1.25 -0.303,-2.3469 -0.907,-3.293 -0.604,-0.9469 -1.551,-1.4199 -2.84,-1.4199 h -0.543 z M 500.719,30.7762 c 0,-0.4422 0.201,-0.6641 0.605,-0.6641 h 9.063 c 0.403,0 0.605,0.2219 0.605,0.6641 v 14.441 h 0.241 c 0.806,0 1.44,-0.3422 1.903,-1.0274 0.463,-0.6839 0.836,-2.0738 1.118,-4.1679 0.121,-1.0469 0.272,-2.1348 0.454,-3.2637 0.181,-1.1273 0.362,-2.1953 0.543,-3.2012 0.181,-1.0082 0.363,-1.8949 0.544,-2.6601 0.181,-0.7637 0.332,-1.2887 0.454,-1.5699 0.16,-0.243 0.361,-0.3641 0.603,-0.3641 l 9.486,1.1492 c 0.243,0.041 0.424,0.1617 0.544,0.3629 0.121,0.2012 0.121,0.402 0,0.6039 -0.201,0.3633 -0.403,0.9473 -0.604,1.7512 -0.201,0.807 -0.423,1.723 -0.664,2.75 -0.242,1.0281 -0.474,2.0937 -0.696,3.2019 -0.22,1.109 -0.412,2.1461 -0.574,3.1129 -0.603,3.5039 -1.892,5.9223 -3.867,7.25 1.854,1.1289 3.193,2.568 4.019,4.3199 0.826,1.7524 1.239,3.5961 1.239,5.5301 0,1.8121 -0.263,3.4531 -0.786,4.9231 -0.524,1.4711 -1.43,2.791 -2.719,3.959 -0.725,0.6039 -1.541,1.1179 -2.447,1.539 -0.907,0.4238 -1.864,0.7559 -2.87,0.9981 -1.007,0.2429 -2.054,0.4129 -3.142,0.514 -1.088,0.1 -2.155,0.1508 -3.203,0.1508 -1.692,0 -3.344,-0.0707 -4.954,-0.2109 -1.612,-0.141 -3.062,-0.3321 -4.351,-0.575 -0.362,-0.0801 -0.544,-0.302 -0.544,-0.6641 z m -22.298,0 c 0,-0.4422 0.203,-0.6641 0.605,-0.6641 h 9.124 c 0.402,0 0.604,0.2219 0.604,0.6641 v 30.3937 h 6.284 c 0.443,0 0.665,0.2211 0.665,0.6641 v 8.3992 c 0,0.443 -0.222,0.6637 -0.665,0.6637 h -22.84 c -0.443,0 -0.664,-0.2207 -0.664,-0.6637 V 61.834 c 0,-0.443 0.221,-0.6641 0.664,-0.6641 h 6.223 z m -29.488,-0.6641 c 0.443,0 0.665,0.2219 0.665,0.6641 v 6.7668 c 0,2.3379 -0.019,4.5941 -0.06,6.7679 -0.04,2.1762 -0.101,4.1289 -0.181,5.861 0.201,-0.7239 0.383,-1.3278 0.544,-1.8117 0.161,-0.4832 0.332,-0.9481 0.513,-1.3891 0.181,-0.443 0.373,-0.9082 0.575,-1.391 0.201,-0.4821 0.442,-1.068 0.724,-1.7512 l 5.318,-13.293 c 0.081,-0.2839 0.281,-0.4238 0.604,-0.4238 h 8.278 c 0.403,0 0.604,0.2219 0.604,0.6641 v 39.457 c 0,0.443 -0.201,0.6637 -0.604,0.6637 h -7.915 c -0.444,0 -0.665,-0.2207 -0.665,-0.6637 v -6.4043 c 0,-2.4578 0.05,-4.8848 0.151,-7.282 0.1,-2.3957 0.231,-4.5617 0.392,-6.4957 -0.443,1.1289 -0.876,2.2457 -1.298,3.3539 -0.423,1.107 -0.796,2.064 -1.119,2.8711 l -5.558,14.1988 c -0.081,0.2809 -0.282,0.4219 -0.605,0.4219 h -8.278 c -0.403,0 -0.603,-0.2207 -0.603,-0.6637 v -39.457 c 0,-0.4422 0.2,-0.6641 0.603,-0.6641 z M 432.86,55.0059 c 0,0.4441 -0.201,0.664 -0.605,0.664 h -7.975 v 6.1039 h 7.19 c 0.444,0 0.665,0.2012 0.665,0.6032 v 7.8562 c 0,0.443 -0.221,0.6637 -0.665,0.6637 h -16.918 c -0.443,0 -0.665,-0.2207 -0.665,-0.6637 v -39.457 c 0,-0.4422 0.222,-0.6641 0.665,-0.6641 h 19.335 c 0.444,0 0.665,0.2219 0.665,0.6641 v 7.8547 c 0,0.4031 -0.221,0.6062 -0.665,0.6062 H 424.28 V 46.85 h 7.975 c 0.404,0 0.605,0.2211 0.605,0.6641 z M 407.783,38.934 c 0,0.2012 -0.09,0.373 -0.272,0.514 -0.181,0.1399 -0.373,0.17 -0.574,0.0891 -0.443,-0.1211 -0.986,-0.2301 -1.631,-0.332 -0.644,-0.0992 -1.209,-0.15 -1.692,-0.15 -2.135,0 -3.867,0.8969 -5.197,2.6879 -1.33,1.7929 -1.994,4.6441 -1.994,8.55 0,2.055 0.192,3.8269 0.575,5.3172 0.382,1.4898 0.896,2.7089 1.541,3.6558 0.644,0.9469 1.41,1.643 2.294,2.086 0.887,0.441 1.854,0.664 2.902,0.664 0.684,0 1.268,-0.0609 1.752,-0.182 0.483,-0.1211 0.927,-0.2828 1.329,-0.482 0.202,-0.0821 0.403,-0.0719 0.604,0.0289 0.203,0.1 0.323,0.2523 0.363,0.4531 l 1.39,7.614 c 0.039,0.0801 0.02,0.1809 -0.06,0.302 -0.081,0.1211 -0.162,0.2211 -0.242,0.3012 -0.444,0.2828 -1.168,0.5547 -2.176,0.8168 -1.006,0.2609 -2.255,0.3922 -3.746,0.3922 -2.135,0 -4.24,-0.4122 -6.314,-1.2383 -2.075,-0.8258 -3.938,-2.1059 -5.589,-3.8379 -1.652,-1.732 -2.981,-3.9469 -3.988,-6.6469 -1.008,-2.6973 -1.51,-5.9211 -1.51,-9.6672 0,-2.659 0.301,-5.2058 0.907,-7.6429 0.603,-2.4379 1.57,-4.5719 2.899,-6.404 1.329,-1.8339 3.021,-3.3031 5.075,-4.4121 2.055,-1.1078 4.532,-1.6609 7.433,-1.6609 1.409,0 2.658,0.1 3.746,0.3012 1.087,0.2008 1.913,0.4238 2.477,0.666 0.282,0.1187 0.423,0.3219 0.423,0.6039 z m -37.101,31.9629 c -0.403,0 -0.604,-0.2207 -0.604,-0.6637 v -39.457 c 0,-0.4422 0.201,-0.6641 0.604,-0.6641 h 9.124 c 0.402,0 0.604,0.2219 0.604,0.6641 v 39.457 c 0,0.443 -0.202,0.6637 -0.604,0.6637 z M 344.82,30.1121 c 0.443,0 0.664,0.2219 0.664,0.6641 v 6.7668 c 0,2.3379 -0.02,4.5941 -0.061,6.7679 -0.04,2.1762 -0.1,4.1289 -0.181,5.861 0.202,-0.7239 0.383,-1.3278 0.545,-1.8117 0.161,-0.4832 0.332,-0.9481 0.513,-1.3891 0.181,-0.443 0.372,-0.9082 0.574,-1.391 0.202,-0.4821 0.443,-1.068 0.725,-1.7512 l 5.317,-13.293 c 0.081,-0.2839 0.282,-0.4238 0.605,-0.4238 h 8.277 c 0.403,0 0.604,0.2219 0.604,0.6641 v 39.457 c 0,0.443 -0.201,0.6637 -0.604,0.6637 h -7.915 c -0.443,0 -0.665,-0.2207 -0.665,-0.6637 v -6.4043 c 0,-2.4578 0.051,-4.8848 0.151,-7.282 0.101,-2.3957 0.232,-4.5617 0.393,-6.4957 -0.443,1.1289 -0.876,2.2457 -1.3,3.3539 -0.421,1.107 -0.795,2.064 -1.117,2.8711 l -5.558,14.1988 c -0.082,0.2809 -0.283,0.4219 -0.606,0.4219 h -8.277 c -0.403,0 -0.604,-0.2207 -0.604,-0.6637 v -39.457 c 0,-0.4422 0.201,-0.6641 0.604,-0.6641 z m -41.029,40.7848 c -0.403,0 -0.605,-0.2207 -0.605,-0.6637 V 46.668 c 0,-2.5782 0.212,-4.916 0.635,-7.009 0.423,-2.0942 1.128,-3.8871 2.114,-5.377 0.988,-1.491 2.307,-2.639 3.959,-3.4461 1.65,-0.8039 3.685,-1.207 6.102,-1.207 4.39,0 7.603,1.5 9.638,4.5 2.033,3.002 3.051,7.141 3.051,12.418 v 23.6863 c 0,0.443 -0.201,0.6637 -0.603,0.6637 h -9.125 c -0.403,0 -0.604,-0.2207 -0.604,-0.6637 V 44.916 c 0,-1.25 -0.061,-2.2672 -0.182,-3.0519 -0.121,-0.7852 -0.292,-1.409 -0.513,-1.8731 -0.222,-0.4629 -0.484,-0.7762 -0.785,-0.9359 -0.303,-0.1621 -0.616,-0.2422 -0.937,-0.2422 -0.645,0 -1.209,0.4332 -1.692,1.2992 -0.483,0.8668 -0.725,2.4668 -0.725,4.8039 v 25.3172 c 0,0.443 -0.201,0.6637 -0.603,0.6637 h -9.125 v 0"
         style="fill:#231f20;fill-opacity:1;fill-rule:nonzero;stroke:none;stroke-width:0.1"
         id="path28"
         inkscape:connector-curvature="0" />
      <path
         d="m 466.465,17.432 c -0.069,0 -0.138,-0.0351 -0.209,-0.105 l -1.648,-2.629 c -0.057,-0.098 -0.063,-0.1859 -0.022,-0.2621 0.042,-0.0757 0.119,-0.1148 0.231,-0.1148 h 3.151 c 0.029,0 0.06,0.0078 0.095,0.0211 0.034,0.0137 0.059,0.0348 0.072,0.0629 l 2.422,2.6289 c 0.084,0.084 0.105,0.1711 0.063,0.2609 -0.042,0.0903 -0.119,0.1371 -0.23,0.1371 z M 465.192,6.57695 c 0.111,0.40196 0.209,0.75196 0.293,1.04297 0.083,0.29219 0.173,0.64024 0.271,1.04414 h -0.021 c 0.069,0.1961 0.132,0.40078 0.188,0.61602 0.055,0.21484 0.111,0.44101 0.167,0.67695 0.013,0.07107 0.031,0.15507 0.052,0.25197 0.021,0.0961 0.038,0.1801 0.053,0.25 0.027,-0.0699 0.044,-0.1149 0.052,-0.136 0.006,-0.0199 0.009,-0.032 0.009,-0.032 -0.012,0 -0.017,-0.009 -0.009,-0.0308 0.006,-0.0192 0.023,-0.0801 0.051,-0.1782 l -0.02,0.0219 c 0.069,-0.23593 0.149,-0.48085 0.239,-0.73085 0.091,-0.25 0.171,-0.48789 0.24,-0.70899 0.113,-0.33515 0.216,-0.6789 0.314,-1.0332 0.097,-0.35469 0.202,-0.70703 0.313,-1.05391 z m 2.881,-3.25781 0.981,-3.131249 c 0.014,-0.054688 0.045,-0.1000004 0.094,-0.134766 C 469.197,0.0179688 469.242,0 469.284,0 h 4.237 c 0.098,0 0.167,0.0359375 0.209,0.105859 0.042,0.067969 0.049,0.139063 0.021,0.207032 L 469.179,13.9238 c -0.027,0.1121 -0.104,0.1684 -0.229,0.1684 h -5.199 c -0.125,0 -0.201,-0.0563 -0.229,-0.1684 l -4.3,-13.610909 C 459.194,0.244922 459.201,0.173828 459.243,0.105859 459.285,0.0359375 459.354,0 459.452,0 h 4.007 c 0.14,0 0.223,0.0628906 0.25,0.187891 0.126,0.516015 0.262,1.033199 0.408,1.557029 0.146,0.5211 0.282,1.0461 0.407,1.57422 z M 448.053,0 c 0.154,0 0.23,0.0839844 0.23,0.25 v 3.67383 c 0,0.83633 -0.007,1.66836 -0.021,2.49609 -0.013,0.82813 -0.035,1.65899 -0.062,2.49414 0.361,-0.76484 0.733,-1.51718 1.116,-2.25312 0.383,-0.73906 0.749,-1.41992 1.096,-2.04688 L 452.875,0.125 C 452.931,0.0410156 453,0 453.084,0 h 4.196 c 0.153,0 0.23,0.0839844 0.23,0.25 v 13.5898 c 0,0.1684 -0.077,0.2524 -0.23,0.2524 h -3.549 c -0.152,0 -0.23,-0.084 -0.23,-0.2524 V 10.291 c 0,-0.70897 0.004,-1.37108 0.011,-1.98202 0.007,-0.61289 0.039,-1.26601 0.094,-1.96289 -0.278,0.62696 -0.577,1.25586 -0.898,1.89102 -0.32,0.63281 -0.639,1.23398 -0.959,1.80389 l -2.255,3.9238 c -0.056,0.084 -0.119,0.1274 -0.188,0.1274 h -4.802 c -0.153,0 -0.229,-0.084 -0.229,-0.2524 V 0.25 c 0,-0.1660156 0.076,-0.25 0.229,-0.25 z m -14.258,6.57695 c 0.112,0.40196 0.209,0.75196 0.292,1.04297 0.083,0.29219 0.174,0.64024 0.272,1.04414 h -0.022 c 0.071,0.1961 0.133,0.40078 0.189,0.61602 0.056,0.21484 0.111,0.44101 0.167,0.67695 0.014,0.07107 0.031,0.15507 0.053,0.25197 0.02,0.0961 0.038,0.1801 0.051,0.25 0.028,-0.0699 0.045,-0.1149 0.052,-0.136 0.007,-0.0199 0.011,-0.032 0.011,-0.032 -0.014,0 -0.018,-0.009 -0.011,-0.0308 0.007,-0.0192 0.025,-0.0801 0.053,-0.1782 l -0.022,0.0219 c 0.071,-0.23593 0.151,-0.48085 0.241,-0.73085 0.09,-0.25 0.171,-0.48789 0.24,-0.70899 0.111,-0.33515 0.216,-0.6789 0.313,-1.0332 0.098,-0.35469 0.201,-0.70703 0.314,-1.05391 z m 2.881,-3.25781 0.981,-3.131249 c 0.014,-0.054688 0.046,-0.1000004 0.094,-0.134766 C 437.799,0.0179688 437.845,0 437.887,0 h 4.238 c 0.097,0 0.167,0.0359375 0.208,0.105859 0.042,0.067969 0.049,0.139063 0.021,0.207032 L 437.782,13.9238 c -0.028,0.1121 -0.104,0.1684 -0.229,0.1684 h -5.198 c -0.126,0 -0.202,-0.0563 -0.23,-0.1684 l -4.3,-13.610909 C 427.797,0.244922 427.804,0.173828 427.845,0.105859 427.888,0.0359375 427.957,0 428.054,0 h 4.008 c 0.14,0 0.224,0.0628906 0.251,0.187891 0.125,0.516015 0.261,1.033199 0.407,1.557029 0.146,0.5211 0.281,1.0461 0.407,1.57422 z m -17.411,7.57776 c 0.111,0.0293 0.258,0.0429 0.44,0.0429 0.18,0 0.437,0 0.771,0 0.571,0 1.016,-0.1078 1.336,-0.3238 0.32,-0.2148 0.48,-0.5469 0.48,-0.99295 0,-0.43086 -0.191,-0.7711 -0.574,-1.02305 -0.382,-0.25 -0.907,-0.375 -1.576,-0.375 h -0.877 z M 415.007,0.25 c 0,-0.1660156 0.084,-0.25 0.25,-0.25 h 3.758 c 0.167,0 0.25,0.0839844 0.25,0.25 v 4.82305 h 0.44 c 0.277,0 0.521,-0.02422 0.73,-0.07305 0.209,-0.04805 0.39,-0.13594 0.543,-0.26094 0.152,-0.125 0.288,-0.30312 0.406,-0.53203 0.119,-0.23008 0.227,-0.5332 0.324,-0.9082 0.237,-0.90391 0.446,-1.61094 0.626,-2.11875 0.181,-0.508205 0.328,-0.858986 0.439,-1.05508 C 422.829,0.0410156 422.906,0 423.002,0 h 3.863 c 0.111,0 0.187,0.0359375 0.228,0.105859 0.043,0.067969 0.043,0.144141 0,0.228125 -0.069,0.11211 -0.152,0.348047 -0.25,0.708986 -0.097,0.36406 -0.201,0.73906 -0.312,1.12891 -0.098,0.34804 -0.199,0.69921 -0.303,1.05312 -0.104,0.35508 -0.213,0.69297 -0.324,1.01406 -0.18,0.51289 -0.393,0.97383 -0.637,1.37696 -0.243,0.4039 -0.546,0.72382 -0.907,0.96093 0.251,0.11094 0.504,0.2711 0.762,0.48008 0.256,0.20703 0.49,0.45117 0.699,0.73008 0.208,0.27773 0.383,0.59805 0.522,0.95898 0.139,0.36407 0.208,0.75196 0.208,1.16993 0,0.72308 -0.135,1.34998 -0.407,1.87888 -0.271,0.5301 -0.644,0.959 -1.117,1.2949 -0.542,0.3891 -1.211,0.6743 -2.004,0.8563 -0.793,0.1789 -1.781,0.2711 -2.964,0.2711 -1.044,0 -1.979,-0.0313 -2.808,-0.0942 -0.828,-0.0621 -1.506,-0.1359 -2.035,-0.2199 -0.138,-0.0281 -0.209,-0.1043 -0.209,-0.2293 z m -10.459,6.32695 c 0.112,0.40196 0.209,0.75196 0.293,1.04297 0.083,0.29219 0.174,0.64024 0.272,1.04414 h -0.022 c 0.07,0.1961 0.133,0.40078 0.188,0.61602 0.055,0.21484 0.111,0.44101 0.168,0.67695 0.013,0.07107 0.031,0.15507 0.051,0.25197 0.021,0.0961 0.039,0.1801 0.052,0.25 0.028,-0.0699 0.045,-0.1149 0.053,-0.136 0.007,-0.0199 0.01,-0.032 0.01,-0.032 -0.014,0 -0.018,-0.009 -0.01,-0.0308 0.007,-0.0192 0.023,-0.0801 0.052,-0.1782 l -0.021,0.0219 c 0.07,-0.23593 0.149,-0.48085 0.24,-0.73085 0.09,-0.25 0.17,-0.48789 0.241,-0.70899 0.111,-0.33515 0.215,-0.6789 0.312,-1.0332 0.098,-0.35469 0.202,-0.70703 0.313,-1.05391 z m 2.881,-3.25781 0.981,-3.131249 c 0.014,-0.054688 0.047,-0.1000004 0.094,-0.134766 C 408.553,0.0179688 408.598,0 408.64,0 h 4.237 c 0.098,0 0.167,0.0359375 0.209,0.105859 0.042,0.067969 0.049,0.139063 0.021,0.207032 L 408.536,13.9238 c -0.029,0.1121 -0.105,0.1684 -0.23,0.1684 h -5.198 c -0.125,0 -0.202,-0.0563 -0.23,-0.1684 l -4.3,-13.610909 C 398.55,0.244922 398.557,0.173828 398.599,0.105859 398.64,0.0359375 398.71,0 398.808,0 h 4.008 c 0.139,0 0.223,0.0628906 0.25,0.187891 0.125,0.516015 0.262,1.033199 0.407,1.557029 0.147,0.5211 0.282,1.0461 0.407,1.57422 z m -15.448,7.53676 c 0.112,0.0273 0.251,0.041 0.418,0.041 0.167,0 0.368,0 0.604,0 0.683,0 1.192,-0.125 1.525,-0.375 0.334,-0.25 0.501,-0.59182 0.501,-1.02385 0,-0.52891 -0.216,-0.93516 -0.647,-1.21992 C 393.951,7.99297 393.4,7.85 392.732,7.85 c -0.18,0 -0.326,0 -0.438,0 -0.097,0 -0.201,0.00586 -0.313,0.02109 z M 387.722,0.25 c 0,-0.1660156 0.084,-0.25 0.251,-0.25 h 3.778 c 0.154,0 0.23,0.0839844 0.23,0.25 v 4.26016 c 0.112,-0.01524 0.237,-0.0211 0.376,-0.0211 0.139,0 0.278,0 0.418,0 1.057,0 2.017,0.12891 2.881,0.38594 0.862,0.25586 1.599,0.64297 2.213,1.15898 0.459,0.40391 0.81,0.91797 1.053,1.54493 0.244,0.62617 0.366,1.27304 0.366,1.94101 0,0.77888 -0.175,1.47808 -0.522,2.09808 -0.349,0.6191 -0.766,1.109 -1.253,1.4718 -0.486,0.334 -1.106,0.6043 -1.857,0.8133 -0.752,0.209 -1.65,0.3141 -2.694,0.3141 -1.224,0 -2.237,-0.0313 -3.037,-0.0942 -0.8,-0.0621 -1.465,-0.1359 -1.994,-0.2199 -0.139,-0.0281 -0.209,-0.1043 -0.209,-0.2293 V 0.25 v 0"
         style="fill:#231f20;fill-opacity:1;fill-rule:nonzero;stroke:none;stroke-width:0.1"
         id="path30"
         inkscape:connector-curvature="0" />
      <path
         d="m 425.283,227.672 -50.231,-29 c -2.619,-1.584 -2.289,-5.033 -0.062,-6.357 l 24.73,-14.279 c 2.728,-1.574 5.303,-0.369 6.44,0.846 5.207,5.569 12.292,9.759 20.229,10.772 3.158,0.403 5.453,0.409 8.664,0 7.937,-1.013 15.022,-5.203 20.229,-10.772 1.136,-1.215 3.713,-2.42 6.439,-0.846 l 24.732,14.279 c 2.225,1.324 2.555,4.773 -0.063,6.357 l -50.23,29 c -1.814,1.035 -3.626,1.528 -5.439,1.51 -1.813,0.018 -3.626,-0.475 -5.438,-1.51 v 0"
         style="fill:#231f20;fill-opacity:1;fill-rule:evenodd;stroke:none;stroke-width:0.1"
         id="path32"
         inkscape:connector-curvature="0" />
      <path
         d="m 495.669,124.754 v 58.002 c -0.063,3.058 -3.213,4.498 -5.473,3.231 l -24.732,-14.278 c -2.727,-1.574 -2.972,-4.404 -2.487,-5.999 2.221,-7.297 1.974,-15.33 -1.115,-22.715 -1.231,-2.94 -2.368,-4.925 -4.332,-7.503 -4.85,-6.367 -11.684,-10.598 -19.113,-12.323 -1.625,-0.378 -3.953,-2.005 -3.953,-5.153 V 89.457 c 0.035,-2.589 2.856,-4.5988 5.536,-3.123 l 50.231,29.001 c 1.803,1.053 3.136,2.376 4.027,3.954 0.922,1.561 1.401,3.378 1.411,5.465 v 0"
         style="fill:#231f20;fill-opacity:1;fill-rule:evenodd;stroke:none;stroke-width:0.1"
         id="path34"
         inkscape:connector-curvature="0" />
      <path
         d="m 365.822,124.754 v 58.002 c 0.062,3.058 3.213,4.498 5.473,3.231 l 24.732,-14.278 c 2.726,-1.574 2.972,-4.404 2.486,-5.999 -2.22,-7.297 -1.972,-15.33 1.115,-22.715 1.232,-2.94 2.37,-4.925 4.332,-7.503 4.851,-6.367 11.685,-10.598 19.115,-12.323 1.624,-0.378 3.952,-2.005 3.952,-5.153 V 89.457 c -0.034,-2.589 -2.856,-4.5988 -5.537,-3.123 l -50.231,29.001 c -1.801,1.053 -3.134,2.376 -4.027,3.954 -0.921,1.561 -1.4,3.378 -1.41,5.465 v 0"
         style="fill:#231f20;fill-opacity:1;fill-rule:evenodd;stroke:none;stroke-width:0.1"
         id="path36"
         inkscape:connector-curvature="0" />
    </g>
  </g>
</svg>
